# xmcd
# 
# Track frame offsets:
#     150
#     13921
#     29921
#     49880
#     64871
#     83086
#     102135
#     116697
#     128297
#     145040
#     161937
#     180260
#     199351
# 
# Disc length: 2830
# 
# Revision: 5
# Processed by: cddbd v1.5.2PL0 Copyright (c) Steve Scherf et al.
# Submitted via: BonkEnc v1.0.6
# 
DISCID=b30b0c0d
DTITLE=Rooney - Calling the world
DYEAR=2007
DGENRE=Pop
TTITLE0=Calling the World
TTITLE1=When Did Your Heart Go Missing?
TTITLE2=I Should´ve Been After You
TTITLE3=Tell Me Soon
TTITLE4=Don´t Come Around Again
TTITLE5=Are You Afraid?
TTITLE6=Love Me or Leave Me
TTITLE7=Paralyzed
TTITLE8=What For
TTITLE9=All In Your Head
TTITLE10=Believe In Me
TTITLE11=Help Me Find My Way
TTITLE12=Get Away (Bonus Track)
EXTD=
EXTT0=
EXTT1=
EXTT2=
EXTT3=
EXTT4=
EXTT5=
EXTT6=
EXTT7=
EXTT8=
EXTT9=
EXTT10=
EXTT11=
EXTT12=
PLAYORDER=
